<svg width="100" height="100" viewBox="0 0 100 100" fill="none" xmlns="http://www.w3.org/2000/svg">
<path d="M42.262 27.26V35.554C42.262 36.125 42.567 36.654 43.062 36.939L63.274 48.608C64.34 49.224 64.34 50.763 63.274 51.379L43.062 63.048C42.567 63.334 42.262 63.862 42.262 64.433V72.727C42.262 73.958 43.595 74.728 44.661 74.112L84.036 51.379C85.102 50.763 85.102 49.224 84.036 48.608L44.661 25.875C43.595 25.259 42.262 26.029 42.262 27.26Z" fill="#415C8C"/>
<path opacity="0.6" d="M65.1 49.08C64.097 48.51 63.094 47.94 62.091 47.37C62.577 47.854 63.063 48.338 63.549 48.822C64.321 49.525 64.234 50.824 63.273 51.379L43.062 63.048C42.567 63.334 42.262 63.862 42.262 64.433V72.727C42.262 73.842 43.354 74.567 44.353 74.239C44.299 74.079 44.262 73.911 44.262 73.727V65.433C44.262 64.862 44.567 64.333 45.062 64.048L65.274 52.379C65.386 52.294 65.991 51.819 66.074 50.994C66.148 50.249 65.769 49.508 65.1 49.08Z" fill="white"/>
<path opacity="0.6" d="M45.062 37.939C44.567 37.653 44.262 37.125 44.262 36.554V28.26C44.262 27.252 45.156 26.567 46.065 26.685L44.662 25.875C43.596 25.259 42.263 26.029 42.263 27.26V35.554C42.263 36.125 42.568 36.654 43.063 36.939L44.965 38.037C45.013 38.013 45.06 37.989 45.108 37.965L45.062 37.939Z" fill="white"/>
<path d="M84.037 48.608L44.661 25.875C44.468 25.763 44.266 25.711 44.064 25.685L82.036 47.608C83.102 48.224 83.102 49.763 82.036 50.379L42.661 73.112C42.561 73.17 42.456 73.204 42.353 73.238C42.661 74.152 43.754 74.636 44.661 74.112L84.036 51.379C85.103 50.763 85.103 49.224 84.037 48.608Z" fill="black"/>
<path d="M42.262 27.26V35.554C42.262 36.125 42.567 36.654 43.062 36.939L63.274 48.608C64.34 49.224 64.34 50.763 63.274 51.379L43.062 63.048C42.567 63.334 42.262 63.862 42.262 64.433V72.727C42.262 73.958 43.595 74.728 44.661 74.112L84.036 51.379C85.102 50.763 85.102 49.224 84.036 48.608L44.661 25.875C43.595 25.259 42.262 26.029 42.262 27.26Z" stroke="black" stroke-miterlimit="10"/>
<path d="M15.164 27.273V35.567C15.164 36.138 15.469 36.667 15.964 36.952L36.176 48.621C37.242 49.237 37.242 50.776 36.176 51.392L15.964 63.061C15.469 63.347 15.164 63.875 15.164 64.446V72.74C15.164 73.971 16.497 74.741 17.563 74.125L56.938 51.392C58.004 50.776 58.004 49.237 56.938 48.621L17.563 25.888C16.497 25.272 15.164 26.042 15.164 27.273Z" fill="#415C8C"/>
<path opacity="0.6" d="M38.002 49.093C36.999 48.523 35.996 47.953 34.993 47.383C35.479 47.867 35.965 48.351 36.451 48.835C37.223 49.538 37.136 50.837 36.175 51.392L15.964 63.061C15.469 63.347 15.164 63.875 15.164 64.446V72.74C15.164 73.855 16.256 74.58 17.255 74.252C17.201 74.092 17.164 73.924 17.164 73.74V65.446C17.164 64.875 17.469 64.346 17.964 64.061L38.176 52.392C38.288 52.307 38.893 51.832 38.976 51.007C39.05 50.262 38.671 49.521 38.002 49.093Z" fill="white"/>
<path opacity="0.6" d="M17.964 37.939C17.469 37.653 17.164 37.125 17.164 36.554V28.26C17.164 27.252 18.058 26.567 18.967 26.685L17.564 25.875C16.498 25.259 15.165 26.029 15.165 27.26V35.554C15.165 36.125 15.47 36.654 15.965 36.939L17.867 38.037C17.915 38.013 17.962 37.989 18.01 37.965L17.964 37.939Z" fill="white"/>
<path d="M56.938 48.621L17.563 25.888C17.37 25.776 17.168 25.724 16.966 25.698L54.938 47.621C56.004 48.237 56.004 49.776 54.938 50.392L15.563 73.125C15.463 73.183 15.358 73.217 15.255 73.251C15.563 74.165 16.656 74.649 17.563 74.125L56.938 51.392C58.005 50.776 58.005 49.237 56.938 48.621Z" fill="black"/>
<path d="M15.164 27.273V35.567C15.164 36.138 15.469 36.667 15.964 36.952L36.176 48.621C37.242 49.237 37.242 50.776 36.176 51.392L15.964 63.061C15.469 63.347 15.164 63.875 15.164 64.446V72.74C15.164 73.971 16.497 74.741 17.563 74.125L56.938 51.392C58.004 50.776 58.004 49.237 56.938 48.621L17.563 25.888C16.497 25.272 15.164 26.042 15.164 27.273Z" stroke="black" stroke-miterlimit="10"/>
</svg>
