<svg width="100" height="100" viewBox="0 0 100 100" fill="none" xmlns="http://www.w3.org/2000/svg">
<path d="M57.738 72.74V64.446C57.738 63.875 57.433 63.346 56.938 63.061L36.726 51.392C35.66 50.776 35.66 49.237 36.726 48.621L56.938 36.952C57.433 36.666 57.738 36.138 57.738 35.567V27.273C57.738 26.042 56.405 25.272 55.339 25.888L15.964 48.621C14.898 49.237 14.898 50.776 15.964 51.392L55.339 74.125C56.405 74.741 57.738 73.971 57.738 72.74Z" fill="#415C8C"/>
<path opacity="0.6" d="M34.9 50.92C35.903 51.49 36.906 52.06 37.909 52.63C37.423 52.146 36.937 51.662 36.451 51.178C35.679 50.475 35.766 49.176 36.727 48.621L56.938 36.952C57.433 36.666 57.738 36.138 57.738 35.567V27.273C57.738 26.158 56.646 25.433 55.647 25.761C55.701 25.921 55.738 26.089 55.738 26.273V34.567C55.738 35.138 55.433 35.667 54.938 35.952L34.726 47.621C34.614 47.706 34.009 48.181 33.926 49.006C33.852 49.751 34.231 50.492 34.9 50.92Z" fill="white"/>
<path opacity="0.6" d="M54.938 62.061C55.433 62.347 55.738 62.875 55.738 63.446V71.74C55.738 72.748 54.844 73.433 53.935 73.315L55.338 74.125C56.404 74.741 57.737 73.971 57.737 72.74V64.446C57.737 63.875 57.432 63.346 56.937 63.061L55.035 61.963C54.987 61.987 54.94 62.011 54.892 62.035L54.938 62.061Z" fill="white"/>
<path d="M15.963 51.392L55.339 74.125C55.532 74.237 55.734 74.289 55.936 74.315L17.964 52.392C16.898 51.776 16.898 50.237 17.964 49.621L57.339 26.888C57.439 26.83 57.544 26.796 57.647 26.762C57.339 25.848 56.246 25.364 55.339 25.888L15.964 48.621C14.897 49.237 14.897 50.776 15.963 51.392Z" fill="black"/>
<path d="M57.738 72.74V64.446C57.738 63.875 57.433 63.346 56.938 63.061L36.726 51.392C35.66 50.776 35.66 49.237 36.726 48.621L56.938 36.952C57.433 36.666 57.738 36.138 57.738 35.567V27.273C57.738 26.042 56.405 25.272 55.339 25.888L15.964 48.621C14.898 49.237 14.898 50.776 15.964 51.392L55.339 74.125C56.405 74.741 57.738 73.971 57.738 72.74Z" stroke="black" stroke-miterlimit="10"/>
<path d="M84.836 72.727V64.433C84.836 63.862 84.531 63.333 84.036 63.048L63.824 51.379C62.758 50.763 62.758 49.224 63.824 48.608L84.036 36.939C84.531 36.653 84.836 36.125 84.836 35.554V27.26C84.836 26.029 83.503 25.259 82.437 25.875L43.062 48.608C41.996 49.224 41.996 50.763 43.062 51.379L82.437 74.112C83.503 74.728 84.836 73.958 84.836 72.727Z" fill="#415C8C"/>
<path opacity="0.6" d="M61.998 50.907C63.001 51.477 64.004 52.047 65.007 52.617C64.521 52.133 64.035 51.649 63.549 51.165C62.777 50.462 62.864 49.163 63.825 48.608L84.036 36.939C84.531 36.653 84.836 36.125 84.836 35.554V27.26C84.836 26.145 83.744 25.42 82.745 25.748C82.799 25.908 82.836 26.076 82.836 26.26V34.554C82.836 35.125 82.531 35.654 82.036 35.939L61.824 47.608C61.712 47.693 61.107 48.168 61.024 48.993C60.95 49.738 61.329 50.479 61.998 50.907Z" fill="white"/>
<path opacity="0.6" d="M82.036 62.061C82.531 62.347 82.836 62.875 82.836 63.446V71.74C82.836 72.748 81.942 73.433 81.033 73.315L82.436 74.125C83.502 74.741 84.835 73.971 84.835 72.74V64.446C84.835 63.875 84.53 63.346 84.035 63.061L82.133 61.963C82.085 61.987 82.038 62.011 81.99 62.035L82.036 62.061Z" fill="white"/>
<path d="M43.062 51.379L82.437 74.112C82.63 74.224 82.832 74.276 83.034 74.302L45.062 52.379C43.996 51.763 43.996 50.224 45.062 49.608L84.437 26.875C84.537 26.817 84.642 26.783 84.745 26.749C84.437 25.835 83.344 25.351 82.437 25.875L43.062 48.608C41.995 49.224 41.995 50.763 43.062 51.379Z" fill="black"/>
<path d="M84.836 72.727V64.433C84.836 63.862 84.531 63.333 84.036 63.048L63.824 51.379C62.758 50.763 62.758 49.224 63.824 48.608L84.036 36.939C84.531 36.653 84.836 36.125 84.836 35.554V27.26C84.836 26.029 83.503 25.259 82.437 25.875L43.062 48.608C41.996 49.224 41.996 50.763 43.062 51.379L82.437 74.112C83.503 74.728 84.836 73.958 84.836 72.727Z" stroke="black" stroke-miterlimit="10"/>
</svg>
