<svg width="64" height="64" viewBox="0 0 64 64" fill="none" xmlns="http://www.w3.org/2000/svg">
<path d="M55.9996 0H7.99963C3.58822 0 0 3.58868 0 7.99993V55.9994C0 60.4112 3.58835 63.9999 7.99963 63.9999H55.9996C60.4117 63.9999 64 60.4112 64 55.9994V8.00007C64.0001 3.58868 60.4118 0 55.9996 0Z" fill="#1B80E4"/>
<path d="M53.9999 32H43.9998V23.9999C43.9998 21.7917 45.7923 22.0002 47.9997 22.0002H52.0003V11.9999H43.9998C37.3719 11.9999 32.0003 17.3716 32.0003 23.9999V32H24.0004V42H32.0003V64H43.9998V42H49.9998L53.9999 32Z" fill="#FCFCFC"/>
</svg>
