<svg width="64" height="64" viewBox="0 0 64 64" fill="none" xmlns="http://www.w3.org/2000/svg">
<g clip-path="url(#clip0_2_13)">
<path d="M54.4 0H9.6C4.29807 0 0 4.29807 0 9.6V54.4C0 59.7019 4.29807 64 9.6 64H54.4C59.7019 64 64 59.7019 64 54.4V9.6C64 4.29807 59.7019 0 54.4 0Z" fill="#37AEE2"/>
<path d="M24.875 50.5C23.5 50.5 23.625 50 23.25 48.75L19.25 35.625L49.875 17.625" fill="#C8DAEA"/>
<path d="M24.875 50.5C25.75 50.5 26.25 50 26.875 49.5L32.5 44.125L25.5 39.875" fill="#A9C9DD"/>
<path d="M25.5 39.875L42.375 52.25C44.125 53.375 45.625 52.75 46.125 50.5L53 18.25C53.625 15.5 51.875 14.25 50 15.125L9.875 30.625C7.25 31.625 7.25 33.25 9.375 33.875L19.75 37.125L43.5 22C44.625 21.375 45.625 21.625 44.875 22.5" fill="#F6FBFE"/>
</g>
<defs>
<clipPath id="clip0_2_13">
<rect width="64" height="64" fill="white"/>
</clipPath>
</defs>
</svg>
